<svg width="44" height="44" viewBox="0 0 44 44" fill="none" xmlns="http://www.w3.org/2000/svg">
<path d="M26.6939 7.30305L30.5936 3.40339C31.4967 2.50458 32.7191 2 33.9933 2C35.2675 2 36.4898 2.50458 37.393 3.40339L40.5927 6.60311C41.0402 7.049 41.3952 7.57884 41.6374 8.16224C41.8797 8.74564 42.0044 9.37112 42.0044 10.0028C42.0044 10.6345 41.8797 11.26 41.6374 11.8434C41.3952 12.4268 41.0402 12.9566 40.5927 13.4025L36.6931 17.3022M41.9926 2.00351L38.9928 5.00325M37.9929 24.0016C37.9929 33.9418 29.9348 42 19.9945 42C10.0543 42 1.99609 33.9418 1.99609 24.0016C1.99609 14.0613 10.0543 6.00316 19.9945 6.00316C29.9348 6.00316 37.9929 14.0613 37.9929 24.0016Z" stroke="black" stroke-width="3" stroke-linecap="round" stroke-linejoin="round"/>
</svg>
